<svg width="24" height="24" viewBox="0 0 24 24" fill="none" xmlns="http://www.w3.org/2000/svg">
<g clip-path="url(#clip0_876_68)">
<path d="M22.75 12C22.75 6.06293 17.9371 1.25 12 1.25C6.06293 1.25 1.25 6.06293 1.25 12C1.25 17.3656 5.1811 21.8129 10.3203 22.6194V15.1074H7.59082V12H10.3203V9.63164C10.3203 6.93742 11.9253 5.44922 14.3807 5.44922C15.5565 5.44922 16.7871 5.65918 16.7871 5.65918V8.30469H15.4316C14.0963 8.30469 13.6797 9.1334 13.6797 9.98437V12H16.6611L16.1845 15.1074H13.6797V22.6194C18.8189 21.8129 22.75 17.3656 22.75 12Z" fill="#1877F2"/>
<path d="M16.1845 15.1074L16.6611 12H13.6797V9.98438C13.6797 9.13424 14.0963 8.30469 15.4316 8.30469H16.7871V5.65918C16.7871 5.65918 15.5569 5.44922 14.3807 5.44922C11.9253 5.44922 10.3203 6.93742 10.3203 9.63164V12H7.59082V15.1074H10.3203V22.6194C11.4333 22.7935 12.5667 22.7935 13.6797 22.6194V15.1074H16.1845Z" fill="white"/>
</g>
<defs>
<clipPath id="clip0_876_68">
<rect width="21.5" height="21.5" fill="white" transform="translate(1.25 1.25)"/>
</clipPath>
</defs>
</svg>
