<svg width="24" height="24" viewBox="0 0 24 24" fill="none" xmlns="http://www.w3.org/2000/svg">
<path fill-rule="evenodd" clip-rule="evenodd" d="M21.3596 12.2214C21.3596 11.5301 21.2976 10.8653 21.1824 10.2271H11.9998V13.9986H17.247C17.0209 15.2173 16.334 16.2499 15.3014 16.9413V19.3876H18.4524C20.296 17.6903 21.3596 15.1907 21.3596 12.2214Z" fill="#4285F4"/>
<path fill-rule="evenodd" clip-rule="evenodd" d="M11.9999 21.7497C14.6324 21.7497 16.8394 20.8766 18.4526 19.3876L15.3016 16.9412C14.4285 17.5262 13.3117 17.8719 11.9999 17.8719C9.46054 17.8719 7.31114 16.1568 6.54445 13.8522H3.28711V16.3784C4.8914 19.5648 8.18863 21.7497 11.9999 21.7497Z" fill="#34A853"/>
<path fill-rule="evenodd" clip-rule="evenodd" d="M6.54449 13.8526C6.34949 13.2676 6.2387 12.6427 6.2387 12.0001C6.2387 11.3575 6.34949 10.7326 6.54449 10.1476V7.62146H3.28715C2.62682 8.9377 2.25012 10.4268 2.25012 12.0001C2.25012 13.5734 2.62682 15.0624 3.28715 16.3787L6.54449 13.8526Z" fill="#FBBC05"/>
<path fill-rule="evenodd" clip-rule="evenodd" d="M11.9997 6.12788C13.4311 6.12788 14.7164 6.61981 15.7268 7.58595L18.5232 4.78948C16.8347 3.21619 14.6277 2.25006 11.9997 2.25006C8.18839 2.25006 4.89116 4.43494 3.28687 7.6214L6.5442 10.1475C7.3109 7.84299 9.4603 6.12788 11.9997 6.12788Z" fill="#EA4335"/>
</svg>
